<svg width="80" height="80" viewBox="0 0 80 80" fill="none" xmlns="http://www.w3.org/2000/svg">
<circle cx="40" cy="40" r="39.5" fill="#797878" stroke="#734345"/>
<path d="M39.8333 62.0333C32.125 62.0333 25.3108 58.0867 21.3333 52.1667C21.4258 46 33.6667 42.6083 39.8333 42.6083C46 42.6083 58.2408 46 58.3333 52.1667C54.3558 58.0867 47.5417 62.0333 39.8333 62.0333ZM39.8333 18.25C42.2866 18.25 44.6394 19.2246 46.3741 20.9593C48.1088 22.694 49.0833 25.0467 49.0833 27.5C49.0833 29.9533 48.1088 32.306 46.3741 34.0407C44.6394 35.7755 42.2866 36.75 39.8333 36.75C37.3801 36.75 35.0273 35.7755 33.2926 34.0407C31.5579 32.306 30.5833 29.9533 30.5833 27.5C30.5833 25.0467 31.5579 22.694 33.2926 20.9593C35.0273 19.2246 37.3801 18.25 39.8333 18.25ZM39.8333 9C35.7842 9 31.7748 9.79753 28.0339 11.347C24.2931 12.8966 20.894 15.1677 18.0309 18.0309C12.2485 23.8132 9 31.6558 9 39.8333C9 48.0108 12.2485 55.8534 18.0309 61.6358C20.894 64.4989 24.2931 66.7701 28.0339 68.3196C31.7748 69.8691 35.7842 70.6667 39.8333 70.6667C48.0108 70.6667 55.8534 67.4182 61.6358 61.6358C67.4182 55.8534 70.6667 48.0108 70.6667 39.8333C70.6667 22.7825 56.7917 9 39.8333 9Z" fill="#734345"/>
</svg>
