<svg width="151" height="215" viewBox="0 0 151 215" fill="none" xmlns="http://www.w3.org/2000/svg">
<path d="M75.25 0C33.755 0 0 33.755 0 75.25C0 131.688 75.25 215 75.25 215C75.25 215 150.5 131.688 150.5 75.25C150.5 33.755 116.745 0 75.25 0Z" fill="white"/>
<path d="M75 131C102.614 131 125 126.44 125 120.816C125 115.191 102.614 110.632 75 110.632C47.3858 110.632 25 115.191 25 120.816C25 126.44 47.3858 131 75 131Z" fill="white" stroke="#ED4A51" stroke-width="6.75454" stroke-linecap="round" stroke-linejoin="round"/>
<path d="M68.1035 46.1315V49.5263" stroke="#ED4A51" stroke-width="6.75454" stroke-linecap="round" stroke-linejoin="round"/>
<path d="M68.1035 56.3159V59.7106" stroke="#ED4A51" stroke-width="6.75454" stroke-linecap="round" stroke-linejoin="round"/>
<path d="M61.207 52.9211H64.6553" stroke="#ED4A51" stroke-width="6.75454" stroke-linecap="round" stroke-linejoin="round"/>
<path d="M71.5518 52.9211H75" stroke="#ED4A51" stroke-width="6.75454" stroke-linecap="round" stroke-linejoin="round"/>
<path d="M117.241 64.8027C119.622 64.8027 121.552 62.9029 121.552 60.5593C121.552 58.2157 119.622 56.3159 117.241 56.3159C114.861 56.3159 112.931 58.2157 112.931 60.5593C112.931 62.9029 114.861 64.8027 117.241 64.8027Z" stroke="#ED4A51" stroke-width="6.75454" stroke-linecap="round" stroke-linejoin="round"/>
<path d="M45.0881 37.8144C45.0881 38.1733 44.98 38.5241 44.7774 38.8225C44.5749 39.1209 44.2871 39.3535 43.9503 39.4908C43.6135 39.6281 43.2429 39.6641 42.8854 39.594C42.5279 39.524 42.1995 39.3512 41.9417 39.0975C41.6839 38.8437 41.5084 38.5204 41.4373 38.1684C41.3662 37.8164 41.4027 37.4516 41.5422 37.1201C41.6817 36.7885 41.9179 36.5051 42.221 36.3057C42.5241 36.1064 42.8804 35.9999 43.245 35.9999C43.7338 35.9999 44.2026 36.1911 44.5482 36.5314C44.8939 36.8717 45.0881 37.3332 45.0881 37.8144Z" fill="#ED4A51"/>
<path d="M107.157 39.5117C107.157 39.8706 107.049 40.2214 106.846 40.5198C106.644 40.8182 106.356 41.0507 106.019 41.1881C105.682 41.3254 105.312 41.3613 104.954 41.2913C104.597 41.2213 104.268 41.0485 104.011 40.7947C103.753 40.541 103.577 40.2177 103.506 39.8657C103.435 39.5137 103.472 39.1489 103.611 38.8173C103.751 38.4858 103.987 38.2024 104.29 38.003C104.593 37.8036 104.949 37.6972 105.314 37.6972C105.803 37.6972 106.271 37.8884 106.617 38.2287C106.963 38.5689 107.157 39.0305 107.157 39.5117Z" fill="#ED4A51"/>
<path d="M85.3449 97.0525L71.5518 88.5656L50.8828 114.026L81.5018 120.496L85.3449 97.0525Z" fill="white" stroke="#ED4A51" stroke-width="6.75454" stroke-linecap="round" stroke-linejoin="round"/>
<path d="M72.4138 102.145C73.8422 102.145 75.0001 101.005 75.0001 99.5987C75.0001 98.1926 73.8422 97.0527 72.4138 97.0527C70.9855 97.0527 69.8276 98.1926 69.8276 99.5987C69.8276 101.005 70.9855 102.145 72.4138 102.145Z" fill="#ED4A51"/>
<path d="M72.414 109.473C73.192 109.473 73.8226 108.852 73.8226 108.086C73.8226 107.32 73.192 106.699 72.414 106.699C71.636 106.699 71.0054 107.32 71.0054 108.086C71.0054 108.852 71.636 109.473 72.414 109.473Z" fill="#ED4A51"/>
<path d="M67.2414 105.721C67.8194 105.721 68.2879 105.26 68.2879 104.691C68.2879 104.122 67.8194 103.661 67.2414 103.661C66.6634 103.661 66.1948 104.122 66.1948 104.691C66.1948 105.26 66.6634 105.721 67.2414 105.721Z" fill="#ED4A51"/>
<path d="M78.4482 102.145H114.655V120.816H78.4482V102.145Z" fill="#ED4A51" stroke="#ED4A51" stroke-width="6.75454" stroke-linecap="round" stroke-linejoin="round"/>
<path d="M88.7931 91.9608L78.4482 102.145H93.9655V111.48C93.9655 112.156 94.238 112.803 94.723 113.281C95.208 113.758 95.8658 114.027 96.5517 114.027C97.2376 114.027 97.8954 113.758 98.3804 113.281C98.8654 112.803 99.1379 112.156 99.1379 111.48V106.388C99.1379 107.064 99.4104 107.711 99.8954 108.189C100.38 108.666 101.038 108.934 101.724 108.934C102.41 108.934 103.068 108.666 103.553 108.189C104.038 107.711 104.31 107.064 104.31 106.388V102.145H114.655L88.7931 91.9608Z" fill="white" stroke="#ED4A51" stroke-width="6.75454" stroke-linecap="round" stroke-linejoin="round"/>
<path d="M101.916 69.022C101.916 69.022 99.1381 71.7615 100.528 74.4909C101.207 75.5053 101.569 76.6936 101.569 77.9085C101.569 79.1235 101.207 80.3117 100.528 81.3262" stroke="#ED4A51" stroke-width="6.75454" stroke-linecap="round" stroke-linejoin="round"/>
<path d="M41.0378 93.7171V117.48" stroke="#ED4A51" stroke-width="6.75454" stroke-linecap="round" stroke-linejoin="round"/>
<path d="M26.3894 73.6509C25.5984 75.8382 25.3269 78.1748 25.5958 80.4815C25.8647 82.7881 26.6668 85.0035 27.9407 86.9575C29.2145 88.9115 30.9261 90.5522 32.9442 91.7537C34.9623 92.9552 37.2332 93.6855 39.5825 93.8886C39.9463 93.9124 40.3119 93.9242 40.6825 93.9242C42.8283 93.928 44.9541 93.5198 46.9412 92.7225C50.3714 91.2649 53.1442 88.626 54.74 85.3002C56.3358 81.9744 56.6452 78.1899 55.6101 74.6557L52.1498 61.9594H30.3601L26.3894 73.6509Z" fill="white" stroke="#ED4A51" stroke-width="6.75454" stroke-linecap="round" stroke-linejoin="round"/>
<path d="M25.6428 80.4796C26.0031 83.9681 27.5959 87.2214 30.1435 89.672C32.691 92.1226 36.0316 93.615 39.5825 93.8888C39.9463 93.9126 40.3118 93.9245 40.6825 93.9245C42.8282 93.9282 44.9541 93.52 46.9411 92.7227C50.3714 91.2651 53.1441 88.6262 54.7399 85.3004C56.3357 81.9746 56.6451 78.1902 55.6101 74.6559L55.3566 73.7546C50.9936 75.0187 46.8276 76.8669 42.9756 79.2473C35.2601 83.6775 29.3497 82.4299 25.6428 80.4796Z" fill="#ED4A51" stroke="#ED4A51" stroke-width="6.75454" stroke-linecap="round" stroke-linejoin="round"/>
<path d="M83.8619 69.022C83.8619 69.022 81.0843 71.7564 82.4826 74.4909C83.1617 75.5053 83.5237 76.6936 83.5237 77.9085C83.5237 79.1235 83.1617 80.3117 82.4826 81.3262" stroke="#ED4A51" stroke-width="6.75454" stroke-linecap="round" stroke-linejoin="round"/>
<path d="M92.1948 63.5551C92.1948 63.5551 89.4173 66.2878 90.8052 69.0223C91.4851 70.0367 91.8475 71.2254 91.8475 72.4408C91.8475 73.6562 91.4851 74.8448 90.8052 75.8593" stroke="#ED4A51" stroke-width="6.75454" stroke-linecap="round" stroke-linejoin="round"/>
<path d="M60.8759 116.708C60.1724 120.016 54.4965 121.648 48.1965 120.351C41.8965 119.054 37.3603 115.323 38.0621 112.015C38.7638 108.707 44.4414 107.077 50.7397 108.372C57.0379 109.668 61.5776 113.402 60.8759 116.708Z" fill="#ED4A51" stroke="#ED4A51" stroke-width="6.75454" stroke-linecap="round" stroke-linejoin="round"/>
<path d="M71.751 121.298C72.4532 117.99 67.9154 114.258 61.6155 112.962C55.3156 111.665 49.6392 113.296 48.937 116.604C48.2348 119.912 52.7726 123.645 59.0725 124.941C65.3725 126.237 71.0488 124.606 71.751 121.298Z" fill="#ED4A51" stroke="#ED4A51" stroke-width="6.75454" stroke-linecap="round" stroke-linejoin="round"/>
<path d="M82.6273 122.827C81.9256 126.134 76.248 127.765 69.9497 126.47C63.6514 125.174 59.1118 121.442 59.8135 118.134C60.5152 114.826 66.1928 113.194 72.4928 114.491C78.7928 115.788 83.329 119.519 82.6273 122.827Z" fill="white" stroke="#ED4A51" stroke-width="6.75454" stroke-linecap="round" stroke-linejoin="round"/>
</svg>
