<svg width="151" height="215" viewBox="0 0 151 215" fill="none" xmlns="http://www.w3.org/2000/svg">
<path d="M75.25 0C33.755 0 0 33.755 0 75.25C0 131.688 75.25 215 75.25 215C75.25 215 150.5 131.688 150.5 75.25C150.5 33.755 116.745 0 75.25 0Z" fill="white"/>
<path d="M102.245 79.8664H101.847C102.327 78.1971 102.436 76.4333 102.165 74.7124C101.893 72.9914 101.249 71.3599 100.283 69.9449C99.3158 68.5299 98.0526 67.3697 96.5914 66.5547C95.1302 65.7397 93.5105 65.292 91.8585 65.2463H43.3868C24.514 66.606 36.4623 96.866 41.3475 105.13C43.5383 108.634 46.5254 111.502 50.0362 113.474C53.5469 115.445 57.4695 116.457 61.4459 116.417H73.7958C77.708 116.455 81.5686 115.474 85.0361 113.561C88.5037 111.649 91.4712 108.863 93.6762 105.452H102.245C118.913 105.112 122.184 79.2158 102.245 79.8664ZM73.7958 109.107H61.4459C58.6214 109.147 55.8323 108.439 53.3337 107.048C50.8352 105.656 48.7068 103.626 47.1433 101.142C45.2599 99.2381 34.7104 72.5564 43.3868 72.5564H91.8585C92.3348 72.5547 92.8061 72.6597 93.2412 72.8645C93.6762 73.0693 94.0652 73.3691 94.3825 73.7442C94.7199 74.1368 94.9749 74.6002 95.1307 75.1042C95.2864 75.6081 95.3394 76.1412 95.2861 76.6683C93.3368 92.2351 89.6703 108.416 73.7958 109.107ZM102.245 98.1416H97.3565C98.7798 94.6036 99.8857 90.9325 100.66 87.1765C104.845 86.8805 109.474 87.966 109.17 91.3542C109.057 93.206 108.277 94.9419 106.989 96.2045C105.701 97.4671 104.003 98.1604 102.245 98.1416ZM102.245 127.382C102.245 128.351 101.88 129.281 101.231 129.966C100.582 130.652 99.7012 131.037 98.783 131.037H36.4623C35.544 131.037 34.6634 130.652 34.0141 129.966C33.3648 129.281 33 128.351 33 127.382C33 126.413 33.3648 125.483 34.0141 124.797C34.6634 124.112 35.544 123.727 36.4623 123.727H98.783C99.7012 123.727 100.582 124.112 101.231 124.797C101.88 125.483 102.245 126.413 102.245 127.382Z" fill="#ED4A51"/>
<path d="M53.9627 59.3637C52.5956 55.9246 52.9954 52.9519 53.7008 50.8826C54.681 48.007 56.4433 46.2593 56.5178 46.1863C56.5215 46.1825 56.5253 46.1789 56.5291 46.1753C60.0872 42.777 61.9234 39.4314 61.9869 36.2315C62.0526 32.9139 60.1671 30.9175 60.0869 30.834C59.5959 30.3367 59.5846 29.5181 60.0587 29.0027C60.5328 28.4874 61.3179 28.4756 61.809 28.973C61.9199 29.0855 64.5219 31.773 64.4594 36.2202C64.4039 40.1779 62.2983 44.1702 58.2011 48.0861C57.9345 48.3526 52.6901 53.7572 57.6635 60.982C58.0636 61.5634 57.9388 62.3736 57.3854 62.793C56.8322 63.2126 56.0595 63.082 55.6597 62.5013C54.9175 61.4228 54.3639 60.3728 53.9627 59.3637Z" fill="#ED4A51"/>
<path d="M65.5428 59.3637C64.1757 55.9246 64.5755 52.9519 65.2808 50.8826C66.2611 48.007 68.0234 46.2593 68.0979 46.1863C68.1016 46.1825 68.1054 46.1789 68.1092 46.1753C71.6673 42.777 73.5034 39.4314 73.567 36.2315C73.6326 32.9139 71.7471 30.9175 71.6669 30.834C71.176 30.3367 71.1646 29.5181 71.6388 29.0027C72.1129 28.4874 72.8979 28.4756 73.3891 28.973C73.4999 29.0855 76.1019 31.773 76.0395 36.2202C75.984 40.1779 73.8784 44.1702 69.7812 48.0861C69.5146 48.3526 64.2701 53.7572 69.2436 60.982C69.6437 61.5634 69.5188 62.3736 68.9655 62.793C68.4123 63.2126 67.6396 63.082 67.2398 62.5013C66.4976 61.4228 65.9439 60.3728 65.5428 59.3637Z" fill="#ED4A51"/>
<path d="M76.6748 59.4998C75.3516 56.1713 75.7385 53.2943 76.4212 51.2916C77.37 48.5084 79.0755 46.817 79.1476 46.7463C79.1512 46.7426 79.1549 46.7391 79.1585 46.7356C82.6022 43.4467 84.3793 40.2087 84.4408 37.1117C84.5044 33.9009 82.6795 31.9687 82.6019 31.8879C82.1267 31.4065 82.1157 30.6143 82.5746 30.1155C83.0335 29.6167 83.7933 29.6053 84.2686 30.0867C84.3759 30.1956 86.8942 32.7966 86.8338 37.1008C86.7801 40.9312 84.7422 44.795 80.7768 48.585C80.5187 48.8429 75.443 54.0737 80.2565 61.0661C80.6437 61.6287 80.5229 62.4129 79.9873 62.8189C79.4519 63.2249 78.7041 63.0985 78.3171 62.5365C77.5988 61.4926 77.063 60.4765 76.6748 59.4998Z" fill="#ED4A51"/>
</svg>
