<svg width="151" height="215" viewBox="0 0 151 215" fill="none" xmlns="http://www.w3.org/2000/svg">
<path d="M75.25 0C33.755 0 0 33.755 0 75.25C0 131.688 75.25 215 75.25 215C75.25 215 150.5 131.688 150.5 75.25C150.5 33.755 116.745 0 75.25 0Z" fill="white"/>
<path d="M120.731 115.644C119.775 115.218 118.676 115.162 117.675 115.487C116.674 115.813 115.854 116.493 115.395 117.379C114.936 118.268 114.291 119.064 113.498 119.719C112.704 120.375 111.777 120.877 110.772 121.196C109.766 121.516 108.702 121.647 107.641 121.581C106.581 121.515 105.545 121.254 104.595 120.813L94.9986 116.853V98.8723C94.9919 97.3166 94.6364 95.7792 93.9547 94.3577C93.273 92.9361 92.28 91.6614 91.0386 90.6145L80.6626 82.2715L91.6506 69.0487L116.851 83.9141C117.746 84.4422 118.831 84.619 119.867 84.4055C120.903 84.192 121.805 83.6058 122.375 82.7758C122.944 81.9458 123.135 80.9399 122.905 79.9796C122.674 79.0193 122.042 78.1831 121.147 77.655C121.147 77.655 79.3066 53.119 77.6906 52.4256C75.3507 51.565 72.856 51.1234 70.3386 51.1241H65.6266C64.0499 51.1282 62.488 50.8426 61.0311 50.2838C59.5742 49.725 58.2512 48.904 57.1386 47.8684L49.8266 41.0865C49.0722 40.411 48.0618 40.0373 47.013 40.0457C45.9642 40.0542 44.961 40.4441 44.2193 41.1316C43.4777 41.8191 43.057 42.7491 43.0479 43.7214C43.0388 44.6936 43.442 45.6303 44.1706 46.3296L51.4826 53.1116C53.3359 54.8384 55.5403 56.2073 57.9681 57.1391C60.3959 58.0709 62.9989 58.5471 65.6266 58.5401H70.2506L61.4826 69.1154C59.8763 71.0618 59.0037 73.4431 58.9986 75.8937V87.3292C59.001 88.0182 58.795 88.694 58.404 89.28C58.013 89.8659 57.4527 90.3385 56.7866 90.6442L45.2106 96.0097C45.0621 96.0801 44.9179 96.1581 44.7786 96.2433L39.6346 94.1372C37.7106 93.3097 36.2198 91.8078 35.49 89.9617C34.7601 88.1156 34.851 86.0764 35.7426 84.2924C36.1908 83.3999 36.2382 82.3789 35.8744 81.4541C35.5106 80.5292 34.7653 79.7762 33.8026 79.3607C32.8399 78.9452 31.7385 78.9012 30.7408 79.2385C29.7431 79.5758 28.9308 80.2666 28.4826 81.1591C27.5969 82.9311 27.0974 84.8479 27.0129 86.7993C26.9283 88.7508 27.2604 90.6985 27.9899 92.5307C28.7195 94.3629 29.8322 96.0435 31.2642 97.476C32.6962 98.9085 34.4193 100.065 36.3346 100.878L101.259 127.517C103.411 128.488 105.773 128.995 108.167 129C109.979 128.998 111.777 128.712 113.487 128.155C115.471 127.512 117.298 126.511 118.862 125.209C120.426 123.908 121.696 122.331 122.599 120.572C123.052 119.688 123.109 118.674 122.759 117.751C122.41 116.828 121.68 116.071 120.731 115.644ZM60.3666 97.2779C62.3641 96.3593 64.0442 94.9405 65.2163 93.1822C66.3885 91.4238 67.0059 89.3962 66.9986 87.3292V81.096L85.7066 96.1432C86.1125 96.4915 86.4368 96.9135 86.659 97.3831C86.8813 97.8526 86.9969 98.3595 86.9986 98.8723V113.567L54.2306 100.122L60.3666 97.2779ZM96.9986 58.5401C98.9764 58.5401 100.91 57.9964 102.554 56.9778C104.199 55.9592 105.481 54.5114 106.237 52.8176C106.994 51.1237 107.192 49.2598 106.806 47.4616C106.421 45.6634 105.468 44.0116 104.07 42.7151C102.671 41.4187 100.889 40.5358 98.9495 40.1781C97.0097 39.8204 94.999 40.004 93.1717 40.7056C91.3445 41.4073 89.7827 42.5954 88.6839 44.1199C87.5851 45.6443 86.9986 47.4366 86.9986 49.2701C86.9986 51.7286 88.0522 54.0865 89.9275 55.825C91.8029 57.5635 94.3464 58.5401 96.9986 58.5401Z" fill="#ED4A51"/>
</svg>
