<svg width="48" height="48" viewBox="0 0 48 48" fill="none" xmlns="http://www.w3.org/2000/svg">
<path d="M40 18C40 18 39.3593 19.3347 38 21.0289M24 28C20.784 28 18.0957 27.1755 15.8972 26M24 28C27.216 28 29.9043 27.1755 32.1028 26M24 28V35M8 18C8 18 8.70735 19.4736 10.2126 21.2895M15.8972 26L10 32M15.8972 26C13.3784 24.6532 11.5025 22.8457 10.2126 21.2895M32.1028 26L37 32M32.1028 26C34.7636 24.5773 36.7069 22.6405 38 21.0289M10.2126 21.2895L4 24M38 21.0289L44 24" stroke="#A09F9F" stroke-width="2" stroke-linecap="round"/>
</svg>
