<svg width="152" height="216" viewBox="0 0 152 216" fill="none" xmlns="http://www.w3.org/2000/svg">
<path d="M76 0.5C34.505 0.5 0.75 34.255 0.75 75.75C0.75 132.188 76 215.5 76 215.5C76 215.5 151.25 132.188 151.25 75.75C151.25 34.255 117.495 0.5 76 0.5ZM85.46 148.312H66.6475V129.5H85.46M85.46 117.46H66.6475C66.6475 86.93 94.8125 89.295 94.8125 70.375C94.8125 65.3856 92.8305 60.6006 89.3025 57.0726C85.7744 53.5445 80.9894 51.5625 76 51.5625C71.0106 51.5625 66.2256 53.5445 62.6976 57.0726C59.1695 60.6006 57.1875 65.3856 57.1875 70.375H38.375C38.375 60.3962 42.3391 50.8262 49.3951 43.7701C56.4512 36.7141 66.0212 32.75 76 32.75C85.9788 32.75 95.5488 36.7141 102.605 43.7701C109.661 50.8262 113.625 60.3962 113.625 70.375C113.625 93.9175 85.46 96.2825 85.46 117.46Z" fill="white"/>
</svg>
